# xmcd
#
# Track frame offsets:
#	150
#	12557
#	25725
#	42277
#	52645
#	67845
#	83660
#	93952
#	103332
#	115647
#	127807
#	140230
#	162195
#	177675
#	189805
#	201505
#	218990
#	230367
#
# Disc length: 3213 seconds
#
# Revision: 1
# Processed by: cddbd v1.5.2PL0 Copyright (c) Steve Scherf et al.
# Submitted via: audiograbber 1.83.01
#
DISCID=ef0c8b12
DTITLE=Various Artist - Blues Brother - Soul Sister [CD3]
DYEAR=1900
DGENRE=R&B
TTITLE0=John Lee Hooker - I'm In The Mood 
TTITLE1=Lloyd Price - Stagger Lee
TTITLE2=Nina Simone - Here Comes The Sun
TTITLE3=Archie Bell And The Drells - I Just Can't Stop Dancing
TTITLE4=Percy Sledge - Warm And Tender Love
TTITLE5=Drifters - Cupid
TTITLE6=Ike and Tina Turner - Shake A Tail Feather
TTITLE7=Gladys Knight - Every Beat Of My Heart
TTITLE8=The Coasters - Poison Ivy
TTITLE9=Eddie Floyd - Things Get Better
TTITLE10=Ike and Tina Turner - So Fine
TTITLE11=Ben E. King - All Your Tomorrows
TTITLE12=Al Wilson - Show And Tell
TTITLE13=Jerry Butler - Make It Easy On Yourself
TTITLE14=Percy Sledge - Sitting On The Dock Of The Bay
TTITLE15=Dobie Gray - Drift Away
TTITLE16=Wilson Pickett - If You Need Me
TTITLE17=Sam and Dave - Hold On, I'm  Coming
EXTD=
EXTT0=
EXTT1=
EXTT2=
EXTT3=
EXTT4=
EXTT5=
EXTT6=
EXTT7=
EXTT8=
EXTT9=
EXTT10=
EXTT11=
EXTT12=
EXTT13=
EXTT14=
EXTT15=
EXTT16=
EXTT17=
PLAYORDER=
